<?xml version="1.0" encoding="utf-8"?>
<!-- Generator: Adobe Illustrator 16.0.0, SVG Export Plug-In . SVG Version: 6.00 Build 0)  -->
<!DOCTYPE svg PUBLIC "-//W3C//DTD SVG 1.1//EN" "http://www.w3.org/Graphics/SVG/1.1/DTD/svg11.dtd">
<svg version="1.1" id="圖層_1" xmlns="http://www.w3.org/2000/svg" xmlns:xlink="http://www.w3.org/1999/xlink" x="0px" y="0px"
	 width="476.5px" height="83.5px" viewBox="0 0 476.5 83.5" enable-background="new 0 0 476.5 83.5" xml:space="preserve">
<rect x="212.246" y="15.747" transform="matrix(0.7071 -0.7071 0.7071 0.7071 40.2584 180.6949)" fill="none" stroke="#DBBE41" stroke-width="3" stroke-linecap="round" stroke-linejoin="round" stroke-miterlimit="10" width="52.007" height="52.008"/>
<rect x="256.485" y="23.207" transform="matrix(0.7071 -0.7071 0.7071 0.7071 51.0363 206.6973)" fill="none" stroke="#DBBE41" stroke-width="3" stroke-linecap="round" stroke-linejoin="round" stroke-miterlimit="10" width="37.071" height="37.073"/>
<rect x="182.935" y="23.21" transform="matrix(0.7071 -0.7071 0.7071 0.7071 29.4904 154.6893)" fill="none" stroke="#DBBE41" stroke-width="3" stroke-linecap="round" stroke-linejoin="round" stroke-miterlimit="10" width="37.073" height="37.073"/>
<rect x="155.997" y="33.764" transform="matrix(0.7071 -0.7071 0.7071 0.7071 18.5099 128.1688)" fill="none" stroke="#DBBE41" stroke-width="3" stroke-linecap="round" stroke-linejoin="round" stroke-miterlimit="10" width="15.952" height="15.952"/>
<rect x="133.442" y="33.773" transform="matrix(0.7071 -0.7071 0.7071 0.7071 11.8991 112.2261)" fill="none" stroke="#DBBE41" stroke-width="3" stroke-linecap="round" stroke-linejoin="round" stroke-miterlimit="10" width="15.952" height="15.952"/>
<rect x="11.107" y="33.776" transform="matrix(0.7071 -0.7071 0.7071 0.7071 -23.9335 25.7215)" fill="none" stroke="#DBBE41" stroke-width="3" stroke-linecap="round" stroke-linejoin="round" stroke-miterlimit="10" width="15.952" height="15.951"/>
<rect x="304.537" y="33.764" transform="matrix(0.7071 -0.7071 0.7071 0.7071 62.0106 233.1941)" fill="none" stroke="#DBBE41" stroke-width="3" stroke-linecap="round" stroke-linejoin="round" stroke-miterlimit="10" width="15.951" height="15.951"/>
<rect x="327.093" y="33.757" transform="matrix(0.7071 -0.7071 0.7071 0.7071 68.6258 249.1472)" fill="none" stroke="#DBBE41" stroke-width="3" stroke-linecap="round" stroke-linejoin="round" stroke-miterlimit="10" width="15.952" height="15.95"/>
<rect x="450.845" y="33.753" transform="matrix(0.7071 -0.7071 0.7071 0.7071 104.8786 336.6583)" fill="none" stroke="#DBBE41" stroke-width="3" stroke-linecap="round" stroke-linejoin="round" stroke-miterlimit="10" width="15.953" height="15.952"/>
<line fill="none" stroke="#DBBE41" stroke-width="3" stroke-linecap="round" stroke-linejoin="round" stroke-miterlimit="10" x1="346.361" y1="41.75" x2="447.545" y2="41.75"/>
<line fill="none" stroke="#DBBE41" stroke-width="3" stroke-linecap="round" stroke-linejoin="round" stroke-miterlimit="10" x1="30.363" y1="41.75" x2="130.139" y2="41.75"/>
<rect x="222.617" y="26.097" transform="matrix(0.7071 -0.7071 0.7071 0.7071 40.2725 180.6879)" fill="none" stroke="#DBBE41" stroke-width="3" stroke-linecap="round" stroke-linejoin="round" stroke-miterlimit="10" width="31.265" height="31.266"/>
<rect x="191.734" y="32.002" transform="matrix(0.7071 -0.7071 0.7071 0.7071 29.4955 154.689)" fill="none" stroke="#DBBE41" stroke-width="3" stroke-linecap="round" stroke-linejoin="round" stroke-miterlimit="10" width="19.479" height="19.477"/>
<rect x="267.048" y="33.755" transform="matrix(0.7071 -0.7071 0.7071 0.7071 51.0452 206.694)" fill="none" stroke="#DBBE41" stroke-width="3" stroke-linecap="round" stroke-linejoin="round" stroke-miterlimit="10" width="15.953" height="15.951"/>
<rect x="308.361" y="37.6" transform="matrix(0.7071 -0.7071 0.7071 0.7071 62.0021 233.1986)" fill="#DBBE41" width="8.304" height="8.303"/>
<rect x="330.917" y="37.601" transform="matrix(0.7072 -0.707 0.707 0.7072 68.5989 249.1362)" fill="#DBBE41" width="8.304" height="8.303"/>
<rect x="454.67" y="37.579" transform="matrix(0.7072 -0.707 0.707 0.7072 104.8532 336.6292)" fill="#DBBE41" width="8.304" height="8.303"/>
<rect x="159.821" y="37.579" transform="matrix(0.7071 -0.7071 0.7071 0.7071 18.5153 128.163)" fill="#DBBE41" width="8.304" height="8.303"/>
<rect x="231.336" y="34.839" transform="matrix(0.7072 -0.707 0.707 0.7072 40.2451 180.6768)" fill="#DBBE41" stroke="#DBBE41" stroke-width="3" stroke-linecap="round" stroke-linejoin="round" stroke-miterlimit="10" width="13.827" height="13.826"/>
<rect x="14.931" y="37.579" transform="matrix(0.7072 -0.707 0.707 0.7072 -23.9176 25.7124)" fill="#DBBE41" width="8.304" height="8.303"/>
<rect x="137.266" y="37.579" transform="matrix(0.7071 -0.7071 0.7071 0.7071 11.9099 112.2151)" fill="#DBBE41" width="8.304" height="8.303"/>
</svg>
