<?xml version="1.0" encoding="utf-8"?>
<!-- Generator: Adobe Illustrator 16.0.0, SVG Export Plug-In . SVG Version: 6.00 Build 0)  -->
<!DOCTYPE svg PUBLIC "-//W3C//DTD SVG 1.1//EN" "http://www.w3.org/Graphics/SVG/1.1/DTD/svg11.dtd">
<svg version="1.1" id="Layer_1" xmlns="http://www.w3.org/2000/svg" xmlns:xlink="http://www.w3.org/1999/xlink" x="0px" y="0px"
	 width="595.275px" height="595.276px" viewBox="-281.348 -281.349 595.275 595.276"
	 enable-background="new -281.348 -281.349 595.275 595.276" xml:space="preserve">
<path fill="#1A1414" d="M16.291-277.349c-162.465,0-294.235,131.735-294.235,294.252c0,129.979,84.319,240.282,201.245,279.195
	c14.702,2.682,20.083-6.403,20.083-14.182c0-7.004-0.274-25.508-0.396-50.063c-81.842,17.781-99.094-39.443-99.094-39.443
	c-13.389-34.01-32.678-43.041-32.678-43.041c-26.716-18.275,2.002-17.887,2.002-17.887c29.537,2.081,45.07,30.322,45.07,30.322
	c26.248,44.965,68.875,31.981,85.643,24.467c2.653-19.034,10.257-31.998,18.653-39.354
	c-65.329-7.427-134.028-32.669-134.028-145.424c0-32.113,11.465-58.379,30.314-78.956c-3.043-7.444-13.133-37.353,2.865-77.872
	c0,0,24.715-7.911,80.907,30.165c23.47-6.518,48.642-9.808,73.664-9.914c24.978,0.105,50.167,3.396,73.664,9.914
	c56.166-38.076,80.826-30.165,80.826-30.165c16.052,40.501,5.963,70.41,2.929,77.872c18.874,20.577,30.27,46.843,30.27,78.956
	c0,113.036-68.813,137.909-134.363,145.194c10.566,9.085,19.986,27.042,19.986,54.508c0,39.337-0.389,71.07-0.389,80.721
	c0,7.867,5.311,17.004,20.217,14.146c116.829-38.984,201.077-149.216,201.077-279.16C310.559-145.613,178.79-277.349,16.291-277.349
	z"/>
</svg>
