<?xml version="1.0" encoding="utf-8"?>
<!-- Generator: Adobe Illustrator 16.0.0, SVG Export Plug-In . SVG Version: 6.00 Build 0)  -->
<!DOCTYPE svg PUBLIC "-//W3C//DTD SVG 1.1//EN" "http://www.w3.org/Graphics/SVG/1.1/DTD/svg11.dtd">
<svg version="1.1" id="Layer_1" xmlns="http://www.w3.org/2000/svg" xmlns:xlink="http://www.w3.org/1999/xlink" x="0px" y="0px"
	 width="595.275px" height="595.275px" viewBox="0 0 595.275 595.275" enable-background="new 0 0 595.275 595.275"
	 xml:space="preserve">
<path d="M525.333,30.385H69.805c-21.75,0-39.417,17.254-39.417,38.547v457.392c0,21.285,17.667,38.567,39.417,38.567h455.528
	c21.808,0,39.555-17.282,39.555-38.567V68.931C564.888,47.638,547.14,30.385,525.333,30.385z M188.947,485.84h-79.363V230.765
	h79.363V485.84z M149.283,195.918c-25.461,0-45.993-20.589-45.993-45.978c0-25.374,20.532-45.971,45.993-45.971
	c25.36,0,45.956,20.597,45.956,45.971S174.643,195.918,149.283,195.918z M485.837,485.841h-79.254V361.812
	c0-29.579-0.508-67.633-41.193-67.633c-41.251,0-47.543,32.226-47.543,65.517v126.172h-79.181V230.765h75.99v34.878h1.088
	c10.569-20.059,36.438-41.205,75.006-41.205c80.269,0,95.088,52.813,95.088,121.512V485.841z"/>
</svg>
