<?xml version="1.0" encoding="utf-8"?>
<!-- Generator: Adobe Illustrator 16.0.0, SVG Export Plug-In . SVG Version: 6.00 Build 0)  -->
<!DOCTYPE svg PUBLIC "-//W3C//DTD SVG 1.1//EN" "http://www.w3.org/Graphics/SVG/1.1/DTD/svg11.dtd">
<svg version="1.1" id="圖層_1" xmlns="http://www.w3.org/2000/svg" xmlns:xlink="http://www.w3.org/1999/xlink" x="0px" y="0px"
	 width="187.5px" height="42.572px" viewBox="0 0 187.5 42.572" enable-background="new 0 0 187.5 42.572" xml:space="preserve">
<rect x="81.04" y="8.574" transform="matrix(0.7071 -0.7071 0.7071 0.7071 12.406 72.526)" fill="none" stroke="#D4B845" stroke-linecap="round" stroke-linejoin="round" stroke-miterlimit="10" width="25.426" height="25.426"/>
<rect x="102.668" y="12.221" transform="matrix(0.7071 -0.7071 0.7071 0.7071 17.6755 85.2387)" fill="none" stroke="#D4B845" stroke-linecap="round" stroke-linejoin="round" stroke-miterlimit="10" width="18.124" height="18.124"/>
<rect x="66.709" y="12.221" transform="matrix(0.7071 -0.7071 0.7071 0.7071 7.145 59.8166)" fill="none" stroke="#D4B845" stroke-linecap="round" stroke-linejoin="round" stroke-miterlimit="10" width="18.125" height="18.126"/>
<rect x="53.54" y="17.382" transform="matrix(0.7072 -0.707 0.707 0.7072 1.771 46.8391)" fill="none" stroke="#D4B845" stroke-linecap="round" stroke-linejoin="round" stroke-miterlimit="10" width="7.799" height="7.798"/>
<rect x="42.513" y="17.388" transform="matrix(0.7072 -0.707 0.707 0.7072 -1.4618 39.0442)" fill="none" stroke="#D4B845" stroke-linecap="round" stroke-linejoin="round" stroke-miterlimit="10" width="7.798" height="7.798"/>
<rect x="4.935" y="17.388" transform="matrix(0.7072 -0.707 0.707 0.7072 -12.4632 12.4778)" fill="none" stroke="#D4B845" stroke-linecap="round" stroke-linejoin="round" stroke-miterlimit="10" width="7.799" height="7.798"/>
<rect x="126.161" y="17.382" transform="matrix(0.7072 -0.707 0.707 0.7072 23.0388 98.1902)" fill="none" stroke="#D4B845" stroke-linecap="round" stroke-linejoin="round" stroke-miterlimit="10" width="7.798" height="7.798"/>
<rect x="137.188" y="17.377" transform="matrix(0.7071 -0.7071 0.7071 0.7071 26.2829 106.0013)" fill="none" stroke="#D4B845" stroke-linecap="round" stroke-linejoin="round" stroke-miterlimit="10" width="7.8" height="7.799"/>
<line fill="none" stroke="#D4B845" stroke-linecap="round" stroke-linejoin="round" stroke-miterlimit="10" x1="14.349" y1="21.287" x2="40.897" y2="21.287"/>
<rect x="86.11" y="13.633" transform="matrix(0.7071 -0.7071 0.7071 0.7071 12.4152 72.5247)" fill="none" stroke="#D4B845" stroke-linecap="round" stroke-linejoin="round" stroke-miterlimit="10" width="15.286" height="15.287"/>
<rect x="71.011" y="16.52" transform="matrix(0.7071 -0.7071 0.7071 0.7071 7.1466 59.815)" fill="none" stroke="#D4B845" stroke-linecap="round" stroke-linejoin="round" stroke-miterlimit="10" width="9.523" height="9.523"/>
<rect x="107.832" y="17.376" transform="matrix(0.7071 -0.7071 0.7071 0.7071 17.6841 85.2423)" fill="none" stroke="#D4B845" stroke-linecap="round" stroke-linejoin="round" stroke-miterlimit="10" width="7.801" height="7.799"/>
<rect x="128.03" y="19.257" transform="matrix(0.7072 -0.707 0.707 0.7072 23.0349 98.1921)" fill="#D4B845" width="4.059" height="4.059"/>
<rect x="139.058" y="19.257" transform="matrix(0.7072 -0.707 0.707 0.7072 26.2571 105.9797)" fill="#D4B845" width="4.06" height="4.059"/>
<rect x="55.409" y="19.247" transform="matrix(0.7071 -0.7071 0.7071 0.7071 1.7786 46.8467)" fill="#D4B845" width="4.059" height="4.059"/>
<rect x="90.373" y="17.907" transform="matrix(0.7071 -0.7071 0.7071 0.7071 12.4071 72.5277)" fill="#D4B845" stroke="#D4B845" stroke-linecap="round" stroke-linejoin="round" stroke-miterlimit="10" width="6.759" height="6.76"/>
<rect x="6.804" y="19.247" transform="matrix(0.7072 -0.707 0.707 0.7072 -12.4558 12.4747)" fill="#D4B845" width="4.06" height="4.059"/>
<rect x="44.382" y="19.247" transform="matrix(0.7073 -0.7069 0.7069 0.7073 -1.4555 39.0375)" fill="#D4B845" width="4.06" height="4.059"/>
<rect x="174.766" y="17.388" transform="matrix(-0.7072 0.707 -0.707 -0.7072 320.0637 -89.9839)" fill="none" stroke="#D4B845" stroke-linecap="round" stroke-linejoin="round" stroke-miterlimit="10" width="7.8" height="7.799"/>
<line fill="none" stroke="#D4B845" stroke-linecap="round" stroke-linejoin="round" stroke-miterlimit="10" x1="173.151" y1="21.287" x2="146.603" y2="21.287"/>
<rect x="176.636" y="19.268" transform="matrix(-0.7072 0.707 -0.707 -0.7072 320.0807 -89.9542)" fill="#D4B845" width="4.06" height="4.059"/>
</svg>
