<?xml version="1.0" encoding="utf-8"?>
<!-- Generator: Adobe Illustrator 16.0.0, SVG Export Plug-In . SVG Version: 6.00 Build 0)  -->
<!DOCTYPE svg PUBLIC "-//W3C//DTD SVG 1.1//EN" "http://www.w3.org/Graphics/SVG/1.1/DTD/svg11.dtd">
<svg version="1.1"
	 id="圖層_1" xmlns:dc="http://purl.org/dc/elements/1.1/" xmlns:cc="http://creativecommons.org/ns#" xmlns:rdf="http://www.w3.org/1999/02/22-rdf-syntax-ns#" xmlns:svg="http://www.w3.org/2000/svg" xmlns:sodipodi="http://sodipodi.sourceforge.net/DTD/sodipodi-0.dtd" xmlns:inkscape="http://www.inkscape.org/namespaces/inkscape"
	 xmlns="http://www.w3.org/2000/svg" xmlns:xlink="http://www.w3.org/1999/xlink" x="0px" y="0px" width="595.281px"
	 height="595.275px" viewBox="0 0 595.281 595.275" enable-background="new 0 0 595.281 595.275" xml:space="preserve">
<g transform="translate(0,-952.36218)">
	<path d="M62.096,1046.618c-8.125,0-15.691,2.279-22.082,6.279l237.277,206.535c12.589,10.952,27.658,10.95,40.27,0l237.708-206.535
		c-6.389-4-13.956-6.279-22.082-6.279H62.096z M22.91,1074.763c-1.44,4.227-2.381,8.696-2.381,13.423v304.822
		c0,23.028,18.54,41.568,41.567,41.568h471.09c23.027,0,41.566-18.54,41.566-41.568v-304.822c0-4.728-0.941-9.198-2.38-13.423
		l-236.63,205.453c-22.062,19.158-54.58,19.189-76.639,0L22.91,1074.763z"/>
</g>
</svg>
