<?xml version="1.0" encoding="utf-8"?>
<!-- Generator: Adobe Illustrator 16.0.0, SVG Export Plug-In . SVG Version: 6.00 Build 0)  -->
<!DOCTYPE svg PUBLIC "-//W3C//DTD SVG 1.1//EN" "http://www.w3.org/Graphics/SVG/1.1/DTD/svg11.dtd">
<svg version="1.1" id="圖層_2" xmlns="http://www.w3.org/2000/svg" xmlns:xlink="http://www.w3.org/1999/xlink" x="0px" y="0px"
	 width="120.348px" height="120.348px" viewBox="0 0 120.348 120.348" enable-background="new 0 0 120.348 120.348"
	 xml:space="preserve">
<path fill="none" stroke="#000000" stroke-width="2" stroke-miterlimit="10" d="M63.2,47.406c0.151-0.677,0.681-3.823,0.681-5.83
	c0-13.878-11.251-25.128-25.129-25.128c-6.464,0-12.257,2.607-16.821,6.409C13.631,29.772,6.925,42.299,6.925,55.294
	c0,23.505,19.054,42.558,42.557,42.558c11.406,0,23.297-4.32,29.402-11.791c3.189-3.898,5.141-7.906,4.637-12.682
	c-0.803-7.6-5.503-12.849-12.646-14.913c-5.254-1.518-7.836-4.444-7.836-9.042C63.039,48.741,63.049,48.085,63.2,47.406z"/>
<path fill="none" stroke="#000000" stroke-width="2" stroke-miterlimit="10" d="M86.427,47.876l20.522,57.481
	c0.7,1.955,2.506,3.143,4.18,2.678c1.769-0.492,2.713-2.643,2.112-4.803L96.871,44.348c-1.004-3.609-4.194-5.878-7.127-5.062
	c-2.933,0.814-4.496,4.404-3.492,8.016c0.054,0.192,0.115,0.384,0.182,0.571"/>
<path fill="#040000" stroke="#000000" stroke-width="2" stroke-linecap="round" stroke-linejoin="round" stroke-miterlimit="10" d="
	M91.784,24.404c-0.801,0.61-1.69,0.77-2.5,0.22c-0.891-0.61-2.16-1.15-3.301-0.69c-0.859,0.35-1.89,2.12-2.59,2.62
	c-0.72,0.51-2.05,0.09-2.72,0.29c0.17-1.44-0.12-2.89-0.95-4.39c-0.47-0.84-1.77-2.16-1.77-2.16
	C82.893,17.944,88.864,19.703,91.784,24.404z"/>
<path fill="none" stroke="#000000" stroke-width="2" stroke-linecap="round" stroke-linejoin="round" stroke-miterlimit="10" d="
	M87.914,39.664c-3.24,1.59-6.87,0.47-8.57-2.59c-1.18-2.12-0.75-5.13,0.26-7.01c0.58-1.08,0.95-2.15,1.07-3.22
	c0.67-0.2,2,0.22,2.72-0.29c0.7-0.5,1.73-2.27,2.59-2.62c1.141-0.46,2.41,0.08,3.301,0.69c0.81,0.55,1.699,0.39,2.5-0.22
	c0.1,0.16,0.189,0.32,0.279,0.48C94.973,30.144,93.414,36.973,87.914,39.664z"/>
<path fill="none" stroke="#000000" stroke-width="2" stroke-miterlimit="10" d="M78.959,73.63c0,4.991-4.045,9.038-9.039,9.038
	c-4.991,0-9.038-4.047-9.038-9.038c0-4.995,4.047-9.042,9.038-9.042C74.914,64.588,78.959,68.635,78.959,73.63z"/>
<circle fill="none" stroke="#000000" stroke-width="2" stroke-miterlimit="10" cx="39.476" cy="29.819" r="6.359"/>
<circle fill="none" stroke="#000000" stroke-width="2" stroke-miterlimit="10" cx="23.155" cy="43.722" r="5.171"/>
<circle fill="none" stroke="#000000" stroke-width="2" stroke-miterlimit="10" cx="20.574" cy="64.172" r="4.775"/>
<circle fill="none" stroke="#000000" stroke-width="2" stroke-miterlimit="10" cx="38.34" cy="55.251" r="6.358"/>
<circle fill="none" stroke="#000000" stroke-width="2" stroke-miterlimit="10" cx="34.701" cy="75.172" r="4.775"/>
</svg>
