<?xml version="1.0" encoding="utf-8"?>
<!-- Generator: Adobe Illustrator 16.0.0, SVG Export Plug-In . SVG Version: 6.00 Build 0)  -->
<!DOCTYPE svg PUBLIC "-//W3C//DTD SVG 1.1//EN" "http://www.w3.org/Graphics/SVG/1.1/DTD/svg11.dtd">
<svg version="1.1" id="圖層_1" xmlns="http://www.w3.org/2000/svg" xmlns:xlink="http://www.w3.org/1999/xlink" x="0px" y="0px"
	 width="120.348px" height="120.348px" viewBox="0 0 120.348 120.348" enable-background="new 0 0 120.348 120.348"
	 xml:space="preserve">
<path fill="none" stroke="#000000" stroke-width="2" stroke-linecap="round" stroke-linejoin="round" stroke-miterlimit="10" d="
	M77.224,73.504L65.215,45.413c-0.937-2.189-3.47-3.205-5.657-2.269c-2.187,0.935-3.2,3.467-2.266,5.655l14.792,34.601
	c0,0-6.491-6.327-8.91-9.039c-1.563-1.752-3.719-2.219-5.344-1.752c-1.792,0.515-2.633,2.325-1.156,4.752
	c1.461,2.402,9.6,14.988,13.355,20.02c3.111,4.165,14.677,10.502,15.843,12.085c1.169,1.58,5.036,6.818,5.036,6.818l21.896-9.361
	c0,0-2.686-22.225-5.502-28.813c-2.818-6.592-8.529-19.953-8.529-19.953c-0.938-2.187-3.471-3.203-5.654-2.269
	c-2.188,0.938-3.204,3.467-2.27,5.655l2.217,5.188l-3.179-7.438c-0.937-2.19-3.469-3.205-5.657-2.271
	c-2.187,0.937-3.202,3.467-2.266,5.654l3.18,7.439l-4.007-9.373c-0.937-2.188-3.468-3.205-5.656-2.269
	c-2.188,0.937-3.199,3.467-2.265,5.656"/>
<circle fill="none" stroke="#000000" stroke-miterlimit="10" cx="42.254" cy="89.929" r="3.258"/>
<path fill="none" stroke="#000000" stroke-miterlimit="10" d="M49.889,17.041c0,0.523-0.313,0.95-0.702,0.95H34.236
	c-0.388,0-0.701-0.427-0.701-0.95l0,0c0-0.525,0.313-0.95,0.701-0.95h14.952C49.575,16.091,49.889,16.516,49.889,17.041
	L49.889,17.041z"/>
<line fill="none" stroke="#000000" stroke-linecap="round" stroke-linejoin="round" stroke-miterlimit="10" x1="67.471" y1="20.834" x2="15.951" y2="20.834"/>
<line fill="none" stroke="#000000" stroke-linecap="round" stroke-linejoin="round" stroke-miterlimit="10" x1="16.736" y1="83.832" x2="60.174" y2="83.832"/>
<path fill="#FFFFFF" stroke="#000000" stroke-miterlimit="10" d="M-93.326,424.674"/>
<path fill="none" stroke="#000000" stroke-width="2" stroke-miterlimit="10" d="M67.471,50.69V17.428
	c0-2.779-2.253-5.032-5.031-5.032h-0.979h-15.95H37.91H20.982c-2.777,0-5.029,2.253-5.029,5.03v0.002v74.151v0.002
	c0,2.776,2.252,5.029,5.029,5.029H37.91h7.601h15.95h0.979c2.076,0,3.859-1.258,4.628-3.054"/>
<path fill="none" stroke="#000000" stroke-width="2" stroke-linecap="round" stroke-miterlimit="10" d="M67.471,78.257v-5.62"/>
</svg>
