<?xml version="1.0" encoding="utf-8"?>
<!-- Generator: Adobe Illustrator 16.0.0, SVG Export Plug-In . SVG Version: 6.00 Build 0)  -->
<!DOCTYPE svg PUBLIC "-//W3C//DTD SVG 1.1//EN" "http://www.w3.org/Graphics/SVG/1.1/DTD/svg11.dtd">
<svg version="1.1" id="圖層_1" xmlns="http://www.w3.org/2000/svg" xmlns:xlink="http://www.w3.org/1999/xlink" x="0px" y="0px"
	 width="120.348px" height="120.348px" viewBox="0 0 120.348 120.348" enable-background="new 0 0 120.348 120.348"
	 xml:space="preserve">
<path fill="none" stroke="#000000" stroke-width="2" stroke-miterlimit="10" d="M16,39.315c0-3.311,2.685-5.995,5.996-5.995h48.917
	c-0.292-0.459-0.468-1-0.468-1.583c0-1.637,1.327-2.964,2.965-2.964c1.637,0,2.964,1.327,2.964,2.964
	c0,0.584-0.175,1.125-0.467,1.583h5.709c-0.291-0.459-0.467-1-0.467-1.583c0-1.637,1.326-2.963,2.963-2.963
	c1.638,0,2.964,1.326,2.964,2.963c0,0.584-0.176,1.125-0.467,1.583h5.709c-0.291-0.459-0.466-1-0.466-1.583
	c0-1.637,1.326-2.963,2.963-2.963s2.963,1.326,2.963,2.963c0,0.584-0.175,1.125-0.467,1.583h7.036v-3.9
	c0-3.311-2.686-5.995-5.996-5.995H9.997c-3.313,0-5.996,2.685-5.996,5.995v58.456c0,3.311,2.685,5.994,5.996,5.994H16V39.315z"/>
<path fill="none" stroke="#000000" stroke-width="2" stroke-miterlimit="10" d="M116.347,97.771c0,3.312-2.686,5.994-5.996,5.994
	H21.996c-3.313,0-5.996-2.684-5.996-5.994V39.315c0-3.311,2.685-5.995,5.996-5.995h88.354c3.312,0,5.996,2.687,5.996,5.995V97.771z"
	/>
<line fill="none" stroke="#000000" stroke-width="2" stroke-miterlimit="10" x1="16.001" y1="49.557" x2="116.347" y2="49.557"/>
<circle stroke="#000000" stroke-width="2" stroke-miterlimit="10" cx="106.815" cy="41.632" r="2.963"/>
<circle fill="none" stroke="#000000" stroke-width="2" stroke-miterlimit="10" cx="96.112" cy="41.632" r="2.963"/>
<circle fill="none" stroke="#000000" stroke-width="2" stroke-miterlimit="10" cx="85.409" cy="41.632" r="2.964"/>
<circle stroke="#000000" stroke-width="2" stroke-miterlimit="10" cx="94.841" cy="31.263" r="2.057"/>
<line fill="none" stroke="#000000" stroke-width="2" stroke-miterlimit="10" x1="4.001" y1="39.661" x2="16" y2="39.661"/>
<g>
	<path d="M26.538,64.353l-3.734-1.813v-0.402l3.734-1.979v0.762l-2.742,1.395v0.023l2.742,1.258V64.353z"/>
	<path d="M28.37,64.334c0-0.156,0.056-0.287,0.168-0.394c0.111-0.105,0.249-0.157,0.41-0.157c0.158,0,0.294,0.053,0.405,0.157
		c0.112,0.105,0.168,0.236,0.168,0.394c0,0.15-0.055,0.278-0.166,0.385c-0.11,0.106-0.239,0.158-0.389,0.158
		c-0.174,0-0.318-0.055-0.43-0.16C28.425,64.611,28.37,64.482,28.37,64.334z M29.421,58.744l-0.109,4.284h-0.746l-0.104-4.284
		H29.421z"/>
	<path d="M32.272,64.795v-6.051h1.836c2.136,0,3.203,0.982,3.203,2.948c0,0.945-0.304,1.698-0.912,2.261
		c-0.607,0.562-1.387,0.842-2.338,0.842H32.272z M33.21,59.549v4.44h0.824c0.713,0,1.273-0.199,1.682-0.6s0.611-0.959,0.611-1.678
		c0-0.705-0.194-1.243-0.582-1.611c-0.389-0.368-0.951-0.553-1.688-0.553L33.21,59.549L33.21,59.549z"/>
	<path d="M38.05,61.845c0-0.955,0.268-1.729,0.803-2.318c0.535-0.589,1.257-0.885,2.166-0.885c0.853,0,1.535,0.287,2.051,0.859
		c0.517,0.571,0.773,1.307,0.773,2.203c0,0.95-0.263,1.72-0.789,2.309s-1.237,0.883-2.133,0.883c-0.854,0-1.546-0.284-2.076-0.852
		C38.315,63.476,38.05,62.744,38.05,61.845z M39.034,61.779c0,0.666,0.17,1.217,0.512,1.646s0.802,0.646,1.383,0.646
		c0.609,0,1.083-0.205,1.422-0.614c0.339-0.41,0.508-0.966,0.508-1.662c0-0.713-0.164-1.279-0.489-1.695
		c-0.326-0.416-0.792-0.625-1.396-0.625c-0.588,0-1.059,0.216-1.41,0.648C39.212,60.554,39.034,61.107,39.034,61.779z"/>
	<path d="M49.163,64.556c-0.448,0.228-1.013,0.34-1.691,0.34c-0.875,0-1.576-0.274-2.104-0.826
		c-0.528-0.551-0.791-1.276-0.791-2.182c0-0.943,0.292-1.719,0.877-2.33s1.338-0.916,2.26-0.916c0.581,0,1.063,0.081,1.449,0.242
		v0.949c-0.428-0.24-0.9-0.359-1.418-0.359c-0.659,0-1.188,0.217-1.586,0.65c-0.398,0.433-0.599,1-0.599,1.701
		c0,0.67,0.188,1.211,0.562,1.625c0.374,0.413,0.875,0.62,1.502,0.62c0.583,0,1.096-0.134,1.539-0.401V64.556z"/>
	<path d="M54.143,59.549h-1.738v5.246h-0.94v-5.246H49.73v-0.805h4.414L54.143,59.549L54.143,59.549z"/>
	<path d="M59.319,58.744l-1.983,3.844v2.207h-0.941v-2.188l-1.938-3.862h1.073l1.22,2.565c0,0.002,0.048,0.142,0.145,0.414h0.012
		c0.031-0.135,0.082-0.271,0.152-0.406l1.267-2.573H59.319z"/>
	<path d="M61.042,62.58v2.215h-0.938v-6.051h1.828c0.686,0,1.21,0.157,1.574,0.475s0.547,0.775,0.547,1.377
		c0,0.607-0.218,1.094-0.652,1.463c-0.434,0.369-0.973,0.543-1.612,0.521H61.042z M61.042,59.529v2.271h0.672
		c0.903,0,1.354-0.389,1.354-1.164c0-0.737-0.434-1.105-1.301-1.105L61.042,59.529L61.042,59.529z"/>
	<path d="M68.46,64.795h-3.353v-6.051h3.216v0.805h-2.277v1.781h2.113v0.801h-2.113v1.858h2.414V64.795z"/>
	<path d="M75.237,64.795h-0.918v-2.478c0-0.807-0.298-1.211-0.895-1.211c-0.302,0-0.554,0.115-0.754,0.349
		c-0.2,0.232-0.301,0.526-0.301,0.887v2.453h-0.918V58.4h0.918v2.767h0.02c0.328-0.529,0.79-0.793,1.387-0.793
		c0.975,0,1.461,0.588,1.461,1.766V64.795z"/>
	<path d="M78.671,64.748c-0.169,0.097-0.413,0.145-0.73,0.145c-0.819,0-1.229-0.445-1.229-1.336v-2.354h-0.73v-0.728h0.73v-1.012
		l0.914-0.277v1.289h1.047v0.728h-1.047v2.194c0,0.27,0.048,0.462,0.143,0.582s0.248,0.181,0.459,0.181
		c0.164,0,0.313-0.048,0.445-0.142L78.671,64.748L78.671,64.748z"/>
	<path d="M85.925,64.795h-0.918v-2.478c0-0.428-0.069-0.735-0.207-0.926c-0.138-0.189-0.358-0.285-0.66-0.285
		c-0.261,0-0.484,0.119-0.672,0.359c-0.188,0.24-0.282,0.534-0.282,0.879v2.449h-0.914v-2.539c0-0.767-0.293-1.148-0.879-1.148
		c-0.271,0-0.495,0.115-0.674,0.349c-0.179,0.232-0.268,0.53-0.268,0.897v2.441h-0.918v-4.32h0.918v0.68h0.02
		c0.31-0.521,0.763-0.78,1.359-0.78c0.605,0,1.017,0.288,1.229,0.862c0.323-0.575,0.806-0.862,1.445-0.862
		c0.945,0,1.418,0.584,1.418,1.754v2.668H85.925z"/>
	<path d="M87.132,64.795V58.4h0.918v6.396H87.132z"/>
	<path d="M93.557,62.521l-3.733,1.813v-0.758l2.75-1.25v-0.023l-2.75-1.398v-0.762l3.733,1.978V62.521z"/>
	<path d="M26.538,73.953l-3.734-1.813v-0.402l3.734-1.979v0.762l-2.742,1.396v0.022l2.742,1.258V73.953z"/>
	<path d="M32.089,74.394h-0.918v-2.477c0-0.809-0.298-1.211-0.896-1.211c-0.302,0-0.553,0.115-0.754,0.348s-0.301,0.527-0.301,0.887
		v2.453h-0.918V68h0.918v2.766h0.021c0.327-0.528,0.791-0.793,1.387-0.793c0.974,0,1.461,0.589,1.461,1.766V74.394z"/>
	<path d="M35.522,74.347c-0.169,0.097-0.413,0.146-0.729,0.146c-0.82,0-1.23-0.445-1.23-1.337v-2.354h-0.729v-0.728h0.729v-1.012
		l0.914-0.276v1.288h1.047v0.728h-1.047v2.195c0,0.269,0.047,0.462,0.144,0.582c0.096,0.119,0.248,0.18,0.459,0.18
		c0.164,0,0.313-0.047,0.444-0.141L35.522,74.347L35.522,74.347z"/>
	<path d="M42.776,74.394h-0.918v-2.477c0-0.428-0.068-0.735-0.207-0.927c-0.138-0.19-0.357-0.284-0.659-0.284
		c-0.261,0-0.484,0.12-0.673,0.358c-0.188,0.239-0.28,0.532-0.28,0.879v2.449h-0.914v-2.539c0-0.766-0.293-1.147-0.879-1.147
		c-0.271,0-0.496,0.115-0.675,0.348c-0.178,0.232-0.268,0.531-0.268,0.898v2.44h-0.918v-4.32h0.918v0.681h0.021
		c0.31-0.521,0.763-0.781,1.358-0.781c0.607,0,1.018,0.288,1.23,0.863c0.322-0.575,0.805-0.863,1.444-0.863
		c0.945,0,1.418,0.585,1.418,1.754L42.776,74.394L42.776,74.394z"/>
	<path d="M43.983,74.394V68h0.918v6.395L43.983,74.394L43.983,74.394z"/>
	<path d="M50.409,72.121l-3.734,1.813v-0.758l2.75-1.25v-0.023l-2.75-1.397v-0.762l3.734,1.977V72.121z"/>
	<path d="M26.538,83.553l-3.734-1.813v-0.401l3.734-1.98v0.763l-2.742,1.395v0.023l2.742,1.258V83.553z"/>
	<path d="M32.089,83.995h-0.918v-2.478c0-0.808-0.298-1.211-0.896-1.211c-0.302,0-0.553,0.116-0.754,0.348
		c-0.201,0.232-0.301,0.527-0.301,0.888v2.453h-0.918V77.6h0.918v2.766h0.021c0.327-0.527,0.791-0.793,1.387-0.793
		c0.974,0,1.461,0.59,1.461,1.767V83.995z"/>
	<path d="M36.921,82.081h-2.969c0.039,0.872,0.482,1.309,1.332,1.309c0.479,0,0.916-0.144,1.309-0.43v0.758
		c-0.385,0.253-0.892,0.379-1.52,0.379c-0.642,0-1.143-0.195-1.505-0.586c-0.361-0.391-0.543-0.938-0.543-1.641
		c0-0.667,0.195-1.217,0.584-1.648c0.39-0.432,0.877-0.648,1.464-0.648c0.582,0,1.036,0.186,1.36,0.554s0.486,0.876,0.486,1.521
		L36.921,82.081L36.921,82.081z M36.03,81.413c-0.002-0.37-0.087-0.653-0.254-0.853s-0.403-0.297-0.711-0.297
		c-0.278,0-0.521,0.104-0.727,0.314s-0.333,0.486-0.383,0.834L36.03,81.413L36.03,81.413z"/>
	<path d="M37.983,79.964c0.44-0.261,0.949-0.392,1.527-0.392c1.091,0,1.637,0.563,1.637,1.691v2.73h-0.891v-0.656h-0.021
		c-0.294,0.505-0.731,0.758-1.313,0.758c-0.424,0-0.758-0.114-1.002-0.344c-0.244-0.23-0.365-0.538-0.365-0.926
		c0-0.813,0.483-1.286,1.449-1.423l1.254-0.172c0-0.644-0.283-0.965-0.848-0.965c-0.519,0-0.995,0.168-1.431,0.504v-0.807H37.983z
		 M39.307,81.987c-0.313,0.042-0.533,0.121-0.662,0.238s-0.192,0.289-0.192,0.516c0,0.19,0.068,0.347,0.207,0.468
		c0.138,0.121,0.314,0.182,0.53,0.182c0.308,0,0.563-0.108,0.767-0.326s0.305-0.491,0.305-0.821v-0.384L39.307,81.987z"/>
	<path d="M46.241,83.995h-0.914v-0.685h-0.021c-0.313,0.523-0.789,0.785-1.43,0.785c-0.547,0-0.982-0.194-1.308-0.584
		c-0.324-0.39-0.485-0.915-0.485-1.576c0-0.716,0.182-1.289,0.547-1.719s0.84-0.646,1.426-0.646s1.002,0.223,1.25,0.664h0.021V77.6
		h0.914V83.995z M45.335,81.464c0-0.328-0.106-0.604-0.318-0.824s-0.475-0.332-0.787-0.332c-0.37,0-0.664,0.143-0.883,0.426
		c-0.219,0.284-0.328,0.672-0.328,1.164c0,0.453,0.104,0.812,0.31,1.072s0.485,0.393,0.84,0.393c0.344,0,0.625-0.13,0.842-0.389
		s0.326-0.587,0.326-0.981L45.335,81.464L45.335,81.464z"/>
	<path d="M51.753,81.721l-3.734,1.813v-0.759l2.75-1.25v-0.022l-2.75-1.398v-0.762l3.734,1.977V81.721z"/>
	<path d="M26.538,93.153l-3.734-1.813v-0.402l3.734-1.979v0.762l-2.742,1.395v0.023l2.742,1.258V93.153z"/>
	<path d="M31.26,87.544l-2.918,7.055h-0.836l2.91-7.055H31.26z"/>
	<path d="M35.62,93.594h-0.918v-2.477c0-0.809-0.299-1.212-0.896-1.212c-0.302,0-0.553,0.116-0.754,0.349
		c-0.201,0.231-0.301,0.526-0.301,0.887v2.453h-0.918V87.2h0.918v2.766h0.02c0.328-0.528,0.791-0.793,1.388-0.793
		c0.974,0,1.461,0.589,1.461,1.766V93.594z"/>
	<path d="M40.452,91.68h-2.97c0.039,0.872,0.483,1.309,1.332,1.309c0.479,0,0.916-0.144,1.31-0.43v0.758
		c-0.386,0.253-0.893,0.379-1.521,0.379c-0.641,0-1.142-0.194-1.504-0.586c-0.362-0.391-0.543-0.938-0.543-1.641
		c0-0.667,0.195-1.216,0.584-1.648c0.389-0.432,0.877-0.647,1.463-0.647c0.583,0,1.037,0.185,1.361,0.553s0.486,0.876,0.486,1.521
		L40.452,91.68L40.452,91.68z M39.561,91.012c-0.002-0.37-0.087-0.653-0.254-0.852c-0.167-0.199-0.404-0.298-0.711-0.298
		c-0.279,0-0.521,0.104-0.727,0.314s-0.333,0.487-0.384,0.834L39.561,91.012L39.561,91.012z"/>
	<path d="M41.514,89.563c0.44-0.261,0.949-0.391,1.527-0.391c1.091,0,1.637,0.563,1.637,1.69v2.73h-0.891v-0.656h-0.021
		c-0.294,0.505-0.731,0.758-1.313,0.758c-0.425,0-0.759-0.113-1.002-0.344c-0.244-0.229-0.365-0.538-0.365-0.926
		c0-0.813,0.482-1.286,1.449-1.422l1.254-0.172c0-0.645-0.283-0.965-0.849-0.965c-0.518,0-0.995,0.168-1.43,0.504v-0.808H41.514z
		 M42.839,91.587c-0.313,0.042-0.533,0.121-0.662,0.238c-0.129,0.116-0.193,0.288-0.193,0.516c0,0.189,0.069,0.346,0.207,0.467
		c0.139,0.121,0.315,0.182,0.531,0.182c0.307,0,0.563-0.107,0.766-0.325c0.203-0.219,0.306-0.491,0.306-0.822v-0.383L42.839,91.587z
		"/>
	<path d="M49.772,93.594h-0.914V92.91h-0.02c-0.313,0.522-0.789,0.784-1.43,0.784c-0.548,0-0.982-0.193-1.308-0.584
		c-0.325-0.39-0.485-0.915-0.485-1.575c0-0.717,0.182-1.289,0.547-1.72c0.364-0.43,0.84-0.645,1.426-0.645s1.002,0.222,1.25,0.664
		h0.02V87.2h0.914V93.594z M48.866,91.063c0-0.328-0.106-0.603-0.318-0.824c-0.212-0.221-0.475-0.332-0.787-0.332
		c-0.37,0-0.664,0.143-0.883,0.427s-0.328,0.672-0.328,1.164c0,0.453,0.103,0.811,0.309,1.071c0.206,0.262,0.486,0.394,0.841,0.394
		c0.344,0,0.625-0.13,0.842-0.39c0.217-0.259,0.326-0.587,0.326-0.981L48.866,91.063L48.866,91.063z"/>
	<path d="M55.284,91.321l-3.734,1.813v-0.758l2.75-1.25v-0.023l-2.75-1.397v-0.763l3.734,1.978V91.321z"/>
</g>
</svg>
